# xmcd CD database file
#
# Track frame offsets:
#	150
#	36570
#	51688
#	68776
#	85532
#	98911
#	120875
#	144292
#	180721
#	192791
#	204204
#	218609
#	233268
#	250515
#
# Disc length: 3539 seconds
#
# Revision: 0
# Processed by: cddbd v1.4PL0 Copyright (c) Steve Scherf et al.
# Submitted via: CDex 1.50
#
DISCID=b10dd10e
DTITLE=DE-PHAZZ - detunized gravity
DYEAR=1900
DGENRE=Jazz
TTITLE0=Roses
TTITLE1=Between 2 Thieves
TTITLE2=Homesick Inc.
TTITLE3=Lovechild
TTITLE4=Cut The Jazz
TTITLE5=Little Company
TTITLE6=Nemeless Life
TTITLE7=Good Boy
TTITLE8=Lullaby
TTITLE9=Hero Dead and Gone
TTITLE10=No Jive
TTITLE11=Detunized Gravity
TTITLE12=Free Drift
TTITLE13=Bonus
EXTD=
EXTT0=
EXTT1=
EXTT2=
EXTT3=
EXTT4=
EXTT5=
EXTT6=
EXTT7=
EXTT8=
EXTT9=
EXTT10=
EXTT11=
EXTT12=
EXTT13=
PLAYORDER=
